# xmcd CD database file
#
# Track frame offsets:
#	150
#	18942
#	44160
#	64155
#	81472
#	98867
#	123467
#	146580
#	178432
#	201992
#	231060
#	250572
#
# Disc length: 3630 seconds
#
# Revision: 0
# Processed by: cddbd v1.5.2PL0 Copyright (c) Steve Scherf et al.
# Submitted via: CDex 1.51
#
DISCID=b00e2c0c
DTITLE=Bob Badgley and Friends - Covering All The Bass-es
DYEAR=1995
DGENRE=Jazz
TTITLE0=You For Me
TTITLE1=Stardust
TTITLE2=What Could Go Wrong
TTITLE3=The Bad and The Beautiful
TTITLE4=Blue Daniel
TTITLE5=D Street
TTITLE6=Never-Never Land
TTITLE7=Laura
TTITLE8=Confirmation
TTITLE9=Nutshells
TTITLE10=Pure Imagination
TTITLE11=Secret Love
EXTD=YEAR: 1995
EXTT0=
EXTT1=
EXTT2=
EXTT3=
EXTT4=
EXTT5=
EXTT6=
EXTT7=
EXTT8=
EXTT9=
EXTT10=
EXTT11=
PLAYORDER=
